# xmcd
#
# Track frame offsets:
#	150
#	18739
#	38302
#	57849
#	70157
#	86248
#	97385
#	111680
#
# Disc length: 1675 seconds
#
# Revision: 0
# Processed by: cddbd v1.5.1PL2 Copyright (c) Steve Scherf et al.
# Submitted via: EasyCDDAExtractor 9.0.2.1
#
DISCID=70068908
DTITLE=Kelly Willis - Live-Acoustic
DYEAR=1900
DGENRE=
TTITLE0=Cradle Of Love
TTITLE1=Fading Fast
TTITLE2=Happy With That
TTITLE3=Heaven's Just A Sin Away
TTITLE4=Not Forgotten You
TTITLE5=Talk Like That
TTITLE6=What I Deserve
TTITLE7=Wrapped
EXTD=
EXTT0=
EXTT1=
EXTT2=
EXTT3=
EXTT4=
EXTT5=
EXTT6=
EXTT7=
PLAYORDER=
